<?xml version="1.0" standalone="no"?>
<!DOCTYPE svg PUBLIC "-//W3C//DTD SVG 20010904//EN"
 "http://www.w3.org/TR/2001/REC-SVG-20010904/DTD/svg10.dtd">
<svg version="1.0" xmlns="http://www.w3.org/2000/svg"
 width="130.000000pt" height="130.000000pt" viewBox="0 0 130.000000 130.000000"
 preserveAspectRatio="xMidYMid meet">
<metadata>
Created by potrace 1.11, written by Peter Selinger 2001-2013
</metadata>
<g transform="translate(0.000000,130.000000) scale(0.100000,-0.100000)"
fill="#000000" stroke="none">
<path d="M413 1245 c-34 -13 -87 -40 -118 -60 -64 -41 -158 -129 -148 -138 3
-4 -1 -7 -10 -7 -10 0 -17 -6 -17 -14 0 -8 -3 -16 -8 -18 -17 -7 -74 -132 -92
-204 -15 -57 -19 -99 -16 -168 3 -50 6 -98 9 -106 2 -8 7 -32 12 -52 4 -21 12
-38 18 -38 6 0 7 -3 4 -6 -4 -4 10 -38 30 -76 39 -74 155 -202 208 -229 17 -9
47 -25 68 -37 21 -12 44 -22 52 -22 8 0 15 -5 15 -12 0 -6 2 -9 6 -6 3 3 26
-1 52 -9 126 -38 313 -23 443 36 114 52 231 152 280 242 9 16 22 35 28 43 7 8
14 21 15 28 2 7 6 20 9 28 44 106 57 261 31 373 -29 126 -122 275 -211 343
-21 15 -40 31 -43 34 -13 15 -83 52 -144 75 -62 23 -78 25 -239 25 -157 -1
-178 -3 -234 -25z"/>
</g>
</svg>
